:SAMPLES-PER-SECOND 30
:FULLY-SPECIFIED
:DEGREES
1298
root  -34.6615 37.106 11.3356 -131.056 -75.8864 126.315
RightUpLeg  -20.6051 -17.0477 -15.6794
RightLeg  48.1684 -0.382243 -0.797244
RightFoot  -22.216 -0.157645 -0.0754863
RightToes  -1.81608e-008 0 -3.6325e-017
Spine  27.0601 -3.15334 4.38776
Spine1  -5.44947 -2.15233 -1.61528
HEad  -13.8317 0.463991 -11.5142
LeftShoulder1  -0.0536108 3.65343 -29.5419
LeftArm  -12.8316 -3.80457 -42.9867
LeftForeArm  19.7768 -9.94706 -4.16578
LeftHand  -0.0170167 6.66047 2.08877
RightShoulder  -0.255435 -4.37504 22.0684
RightArm  2.92827 10.9869 46.2002
RightForeArm  6.04216 8.99008 3.62707
RightHand  -0.368691 4.56753 -4.57992
LeftUpLeg  -15.3984 13.4488 13.3595
LeftLeg  3.84999 7.313 -1.05145
LeftFoot  0.437491 1.55156 -14.9978
LeftToes  1.81866e-011 -6.13092e-011 2.52013e-011
1299
root  -35.0245 36.8728 11.4244 -135.192 -75.8407 129.571
RightUpLeg  -19.7227 -16.7641 -15.8893
RightLeg  49.5598 0.0202475 -0.325757
RightFoot  -23.5401 -0.151492 0.0727097
RightToes  -1.81608e-008 0 -3.6325e-017
Spine  28.0532 -3.35993 5.15923
Spine1  -5.13176 -2.00845 -2.59519
HEad  -14.1349 0.5361 -11.1705
LeftShoulder1  0.0549387 3.34724 -28.7973
LeftArm  -13.1429 -2.51333 -42.9469
LeftForeArm  20.9031 -9.63767 -4.00765
LeftHand  -0.0277297 8.51131 0.585153
RightShoulder  -0.3498 -4.67264 22.9124
RightArm  4.25701 12.3514 45.1164
RightForeArm  4.61527 9.25404 4.18295
RightHand  -0.457794 4.3716 -5.72086
LeftUpLeg  -15.9783 13.6926 13.531
LeftLeg  3.1524 8.64663 -1.20745
LeftFoot  0.790684 1.5645 -14.6996
LeftToes  1.81866e-011 -6.13092e-011 2.52013e-011
1300
root  -35.4153 36.5869 11.5394 -138.317 -75.7148 132.196
RightUpLeg  -19.376 -16.4572 -16.1803
RightLeg  51.2613 0.294889 0.0245883
RightFoot  -24.9914 -0.126654 0.356628
RightToes  -1.81608e-008 0 -3.6325e-017
Spine  28.674 -3.40042 4.98162
Spine1  -4.72874 -2.10424 -2.26824
HEad  -14.5823 0.977826 -11.5405
LeftShoulder1  0.0739094 3.29335 -29.0668
LeftArm  -12.5907 -1.75145 -42.5019
LeftForeArm  20.0115 -8.03552 -4.16301
LeftHand  -0.0216978 6.5277 1.20187
RightShoulder  -0.392669 -4.82583 22.7119
RightArm  4.36054 13.9339 45.1193
RightForeArm  4.76916 8.76905 4.23707
RightHand  -0.459735 4.75413 -5.54161
LeftUpLeg  -16.6184 13.6961 13.46
LeftLeg  1.91231 11.0701 -1.29025
LeftFoot  1.58583 1.69732 -14.9961
LeftToes  1.81866e-011 -6.13092e-011 2.52013e-011
1301
root  -35.8482 36.2829 11.6758 -142.166 -75.5767 135.805
RightUpLeg  -19.3081 -15.8956 -16.1858
RightLeg  52.9974 0.442636 0.244085
RightFoot  -26.3564 -0.0912733 0.66397
RightToes  -1.81608e-008 0 -3.6325e-017
Spine  28.755 -3.48717 4.47055
Spine1  -3.86118 -2.41357 -1.552
HEad  -14.7536 2.34832 -12.1821
LeftShoulder1  0.0112598 3.47279 -29.5849
LeftArm  -12.0115 -1.53571 -41.9752
LeftForeArm  19.8025 -6.35072 -4.2992
LeftHand  -0.0126551 6.97218 1.76427
RightShoulder  -0.303379 -4.54353 22.0732
RightArm  3.71319 15.3425 45.9912
RightForeArm  5.79892 8.49585 3.98349
RightHand  -0.395325 4.13582 -5.09359
LeftUpLeg  -17.0995 13.8432 13.6884
LeftLeg  0.580161 13.6119 -1.42545
LeftFoot  2.59531 1.84869 -15.1794
LeftToes  1.81866e-011 -6.13092e-011 2.52013e-011
1302
root  -36.3496 35.9852 11.8269 -146.149 -75.0367 139.682
RightUpLeg  -19.3202 -15.0805 -16.3503
RightLeg  54.6274 0.654051 0.582793
RightFoot  -27.748 -0.0473872 0.977442
RightToes  -1.81608e-008 0 -3.6325e-017
Spine  28.8535 -3.49236 3.89421
Spine1  -3.28103 -2.55309 -1.55409
HEad  -15.4334 3.28415 -12.1158
LeftShoulder1  0.0481076 3.36662 -29.3691
LeftArm  -12.3951 -0.886023 -42.2208
LeftForeArm  20.0571 -4.66351 -3.90342
LeftHand  -0.0132909 6.65959 2.11474
RightShoulder  -0.334807 -4.64174 22.3386
RightArm  4.2439 16.609 46.3394
RightForeArm  5.54306 9.13034 4.21049
RightHand  -0.412384 3.81418 -5.45753
LeftUpLeg  -16.9796 14.0867 13.9775
LeftLeg  -0.958638 15.8372 -1.8606
LeftFoot  3.77548 1.97993 -15.0294
LeftToes  1.81866e-011 -6.13092e-011 2.52013e-011
1303
root  -36.9387 35.7548 12.011 -150.936 -74.7798 144.773
RightUpLeg  -19.1867 -14.4725 -15.9918
RightLeg  55.5683 0.867872 0.942708
RightFoot  -28.9902 0.0237176 1.41983
RightToes  -1.81608e-008 0 -3.6325e-017
Spine  28.7981 -3.73979 4.26611
Spine1  -3.19043 -2.62701 -2.18033
HEad  -15.6976 4.24849 -11.8856
LeftShoulder1  0.125751 3.14036 -28.4103
LeftArm  -12.4798 -0.008765 -42.8083
LeftForeArm  20.4741 -3.09181 -3.65668
LeftHand  -0.0283884 7.08142 0.893395
RightShoulder  -0.382184 -4.78263 22.9142
RightArm  4.60374 17.2538 46.7458
RightForeArm  5.62996 10.0549 4.28927
RightHand  -0.390819 4.07567 -5.05621
LeftUpLeg  -17.2153 14.72 14.6011
LeftLeg  -1.16233 17.3567 -2.14476
LeftFoot  5.66525 2.10235 -14.2102
LeftToes  1.81866e-011 -6.13092e-011 2.52013e-011
1304
root  -37.6075 35.587 12.1691 -155.572 -74.3869 149.855
RightUpLeg  -18.8045 -13.7824 -15.5946
RightLeg  55.9883 1.08239 1.30049
RightFoot  -30.1292 0.115307 1.93655
RightToes  -1.81608e-008 0 -3.6325e-017
Spine  28.4822 -3.56268 3.58149
Spine1  -3.17807 -2.69455 -1.71397
HEad  -15.6631 5.42559 -12.0023
LeftShoulder1  0.0805511 3.27309 -28.7461
LeftArm  -12.4973 0.458465 -42.3338
LeftForeArm  19.6882 -1.71329 -3.51869
LeftHand  -0.00964827 6.34197 2.71051
RightShoulder  -0.340575 -4.63816 22.9493
RightArm  6.10967 17.428 47.2238
RightForeArm  4.55118 11.2351 4.70502
RightHand  -0.439388 4.52219 -5.42871
LeftUpLeg  -17.4669 15.3326 15.2189
LeftLeg  -0.0312481 18.6288 -1.86789
LeftFoot  8.51826 2.13828 -12.569
LeftToes  1.81866e-011 -6.13092e-011 2.52013e-011
1305
root  -38.3764 35.6039 12.2799 -159.45 -73.9342 154.371
RightUpLeg  -17.8369 -13.0758 -15.2046
RightLeg  55.2067 1.26516 1.54435
RightFoot  -30.8529 0.216879 2.48091
RightToes  -1.81608e-008 0 -3.6325e-017
Spine  27.7708 -3.27738 2.86675
Spine1  -3.51977 -2.50822 -2.17713
HEad  -14.8388 6.4776 -11.5384
LeftShoulder1  0.0579929 3.33649 -28.6232
LeftArm  -13.137 1.48415 -41.7998
LeftForeArm  20.1819 -1.53464 -3.07954
LeftHand  -0.0253449 6.95551 0.781992
RightShoulder  -0.399281 -4.80635 23.7156
RightArm  7.28672 17.0626 47.661
RightForeArm  5.26209 11.8129 4.91316
RightHand  -0.399241 3.93093 -5.23468
LeftUpLeg  -17.5243 15.5503 15.8801
LeftLeg  0.955594 19.359 -1.10868
LeftFoot  13.9795 2.07115 -9.53857
LeftToes  1.81866e-011 -6.13092e-011 2.52013e-011
1306
root  -39.2944 35.7223 12.3479 -163.812 -74.1486 159.266
RightUpLeg  -15.7475 -12.4263 -14.4456
RightLeg  53.442 1.23656 1.40518
RightFoot  -31.4294 0.376606 3.33371
RightToes  -1.81608e-008 0 -3.6325e-017
Spine  26.9916 -2.81057 1.89637
Spine1  -4.29129 -2.36495 -1.62621
HEad  -13.6353 6.89559 -10.718
LeftShoulder1  -0.027141 3.58179 -28.8214
LeftArm  -13.1757 2.72395 -40.6896
LeftForeArm  19.1233 -2.12202 -3.10267
LeftHand  -0.0294205 7.15918 0.482265
RightShoulder  -0.36355 -4.68715 23.7164
RightArm  8.26356 15.0867 48.4843
RightForeArm  5.43396 12.4416 5.03396
RightHand  -0.386243 4.2851 -4.91395
LeftUpLeg  -16.7355 15.8908 17.0813
LeftLeg  0.401444 19.2266 -0.766938
LeftFoot  20.3267 2.77582 -10.1886
LeftToes  1.81866e-011 -6.13092e-011 2.52013e-011
1307
root  -40.3701 35.9526 12.3452 -167.246 -75.1918 163.15
RightUpLeg  -12.5239 -12.0553 -13.7125
RightLeg  50.615 0.806597 0.695332
RightFoot  -31.6956 0.555119 4.29363
RightToes  -1.81608e-008 0 -3.6325e-017
Spine  25.5273 -2.36913 0.77024
Spine1  -4.76863 -2.24623 -1.1958
HEad  -11.9552 6.94803 -8.88512
LeftShoulder1  -0.0762562 3.72443 -28.3599
LeftArm  -14.1411 3.5529 -39.7897
LeftForeArm  19.0751 -2.8277 -2.58646
LeftHand  -0.0660395 7.78154 -0.63044
RightShoulder  -0.356381 -4.6586 23.8304
RightArm  9.37268 11.9284 48.9924
RightForeArm  5.10425 13.337 5.11286
RightHand  -0.361083 4.38654 -4.57871
LeftUpLeg  -15.9015 16.434 18.0568
LeftLeg  0.496417 17.5728 -0.671667
LeftFoot  23.0666 3.66984 -12.2964
LeftToes  1.81866e-011 -6.13092e-011 2.52013e-011
